# xmcd
#
# Track frame offsets: 
#        150
#        27053
#        47853
#        76092
#        136710
#        165412
#        199816
#
# Disc length: 3065 seconds
#
# Revision: 2
# Processed by: cddbd v1.5.2PL0 Copyright (c) Steve Scherf et al.
# Submitted via: ExactAudioCopy v0.95b4
#
DISCID=4a0bf707
DTITLE=Eric Clapton - 1983-04-20 - No One Else - CD2
DYEAR=1983
DGENRE=Blues
TTITLE0=The Shape You're In
TTITLE1=Wonderful Tonight
TTITLE2=Blues Power
TTITLE3=Ramblin On My Mind and Have You Ever Loved A Woman
TTITLE4=Cocaine
TTITLE5=Layla
TTITLE6=Eric Clapton - Further On Up The Road
EXTD=
EXTT0=
EXTT1=
EXTT2=
EXTT3=
EXTT4=
EXTT5=
EXTT6=
PLAYORDER=
